<?xml version="1.0" standalone="no"?>
<!DOCTYPE svg PUBLIC "-//W3C//DTD SVG 20010904//EN"
 "http://www.w3.org/TR/2001/REC-SVG-20010904/DTD/svg10.dtd">
<svg version="1.0" xmlns="http://www.w3.org/2000/svg"
 width="512.000000pt" height="512.000000pt" viewBox="0 0 512.000000 512.000000"
 preserveAspectRatio="xMidYMid meet">

<g transform="translate(0.000000,512.000000) scale(0.100000,-0.100000)"
fill="#000000" stroke="none">
<path d="M2400 4409 c-246 -35 -427 -87 -616 -178 -598 -289 -989 -859 -1045
-1523 -20 -227 8 -462 82 -704 l31 -102 -65 -91 c-140 -194 -220 -347 -256
-491 -37 -146 -21 -243 52 -326 74 -84 179 -118 340 -113 94 4 100 5 123 32
31 36 31 78 0 114 -24 27 -27 28 -133 29 -121 1 -166 14 -202 60 -34 42 -26
151 17 252 34 79 119 227 175 305 l34 48 48 -83 c179 -312 453 -567 787 -733
316 -156 700 -224 1019 -180 430 61 767 217 1061 494 469 440 676 1089 547
1716 -63 302 -211 602 -413 837 l-76 87 41 11 c96 26 199 42 280 42 73 1 95
-3 135 -23 42 -20 51 -31 63 -68 12 -39 12 -53 -4 -120 -28 -123 -29 -134 -6
-162 27 -35 62 -43 105 -25 31 13 37 22 62 98 63 194 18 350 -123 425 -135 73
-332 69 -617 -13 l-89 -25 -41 30 c-222 167 -500 296 -743 345 -205 42 -427
55 -573 35z m-180 -287 c-95 -103 -211 -255 -265 -348 l-38 -64 -275 0 -276 0
44 46 c146 149 391 304 600 379 82 29 244 74 273 75 13 0 -7 -27 -63 -88z
m755 69 c172 -42 368 -126 517 -223 l68 -44 -163 -72 c-89 -41 -166 -75 -172
-78 -5 -2 -20 14 -33 36 -39 69 -167 232 -249 318 -47 48 -73 82 -64 82 9 0
52 -9 96 -19z m-299 -58 c43 -37 110 -99 147 -138 71 -72 217 -259 217 -275 0
-6 -172 -10 -455 -10 -250 0 -455 4 -455 8 0 15 83 129 158 216 91 105 270
266 298 266 6 0 47 -30 90 -67z m1054 -421 c-38 -2 -103 -2 -142 0 l-73 3 100
41 100 41 43 -41 43 -41 -71 -3z m-1910 -179 c0 -4 -18 -52 -39 -107 -76 -193
-130 -423 -150 -631 -9 -92 -14 -113 -32 -127 -19 -16 -52 -18 -350 -18 -180
0 -330 3 -332 8 -2 4 0 43 4 87 27 249 109 486 243 703 l57 92 300 0 c164 0
299 -3 299 -7z m960 -1 c0 -4 -30 -26 -67 -47 -191 -111 -610 -405 -817 -572
-43 -35 -80 -62 -82 -60 -8 8 37 227 66 326 32 107 89 258 122 324 l18 37 380
0 c209 0 380 -4 380 -8z m1210 -59 c101 -154 198 -389 234 -568 21 -105 35
-238 27 -248 -4 -4 -162 -6 -352 -5 l-344 3 -6 55 c-4 30 -12 100 -19 155 -21
184 -71 381 -141 558 -22 53 -39 99 -39 102 0 3 127 6 283 8 155 1 289 3 297
5 10 1 33 -25 60 -65z m-815 15 c67 -163 90 -225 116 -318 36 -130 68 -305 76
-427 l6 -93 -758 0 c-653 0 -756 2 -746 14 42 51 519 403 746 551 200 131 510
314 531 315 6 0 19 -19 29 -42z m-1795 -1017 c0 -6 -23 -29 -51 -53 -29 -24
-115 -110 -192 -193 -77 -82 -143 -151 -147 -153 -19 -7 -89 374 -73 401 6 11
463 9 463 -2z m1990 -43 c0 -89 -38 -317 -75 -451 -19 -70 -58 -184 -86 -252
l-51 -125 -573 0 -573 0 -45 108 c-90 213 -151 466 -164 675 l-6 97 786 0 787
0 0 -52z m883 45 c6 -12 -11 -156 -29 -248 -36 -177 -133 -414 -232 -565 l-43
-65 -297 3 c-163 2 -298 5 -300 6 -2 2 4 21 13 42 95 222 157 482 181 757 l6
77 349 0 c191 0 350 -3 352 -7z m-2613 -213 c19 -179 86 -427 175 -642 6 -16
-15 -17 -292 -20 -288 -3 -299 -2 -315 17 -18 21 -133 219 -143 247 -9 22 184
238 391 436 l159 153 7 -38 c3 -21 11 -90 18 -153z m296 -872 c54 -104 190
-284 308 -406 l61 -64 -45 7 c-25 4 -83 18 -130 32 -259 74 -495 208 -685 387
l-80 75 277 1 277 0 17 -32z m1065 -40 c-104 -147 -220 -269 -371 -390 l-45
-36 -45 35 c-138 106 -282 259 -380 403 l-41 60 466 0 466 0 -50 -72z m768 36
c-148 -155 -402 -315 -624 -394 -86 -30 -235 -70 -263 -70 -7 0 23 40 68 88
95 103 211 255 265 348 l38 64 275 0 276 0 -35 -36z"/>
</g>
</svg>
